<svg xmlns="http://www.w3.org/2000/svg" version="1.1" xmlns:xlink="http://www.w3.org/1999/xlink" xmlns:svgjs="http://svgjs.dev/svgjs" viewBox="0 0 800 800"><g fill="#001678"><path d="M475 26H525C553 26 575 48 575 76H525C497 76 475 54 475 26Z " transform="matrix(-0.2256838985290003,0.21045364007665404,-0.21045364007665404,-0.2256838985290003,654.2171823716345,-47.97828221526436)"></path><path d="M358 368H408C436 368 458 390 458 418H408C380 418 358 396 358 368Z " transform="matrix(-0.3706373007233003,-0.18884913725044108,0.18884913725044108,-0.3706373007233003,485.00230775568315,615.710907182437)"></path><path d="M689 612H739C767 612 789 634 789 662H739C711 662 689 640 689 612Z " transform="matrix(-0.04384274790475544,0.24864457911432203,-0.24864457911432203,-0.04384274790475544,929.7863875974373,481.1794864498453)"></path><path d="M134 732H184C212 732 234 754 234 782H184C156 782 134 760 134 732Z " transform="matrix(-0.1027914288806375,-0.48359565130815924,0.48359565130815924,-0.1027914288806375,-163.16828512623925,923.794711503344)"></path><path d="M89 19H139C167 19 189 41 189 69H139C111 69 89 47 89 19Z " transform="matrix(-0.38289709289056584,-0.12441080711046569,0.12441080711046569,-0.38289709289056584,186.74862039892815,78.14057427553962)"></path><path d="M709 124H759C787 124 809 146 809 174H759C731 174 709 152 709 124Z " transform="matrix(0.05237110545929426,0.21004903124433225,-0.21004903124433225,0.05237110545929426,750.5476366118012,-18.23050942788302)"></path><path d="M122 294H172C200 294 222 316 222 344H172C144 344 122 322 122 294Z " transform="matrix(-0.07795293485104042,-0.4921754604891208,0.4921754604891208,-0.07795293485104042,28.40393289834941,428.5211654216107)"></path><path d="M642 191H692C720 191 742 213 742 241H692C664 241 642 219 642 191Z " transform="matrix(-0.10131415840923447,0.2507613415436323,-0.2507613415436323,-0.10131415840923447,816.2738473926148,64.35700986820115)"></path><path d="M11 561H61C89 561 111 583 111 611H61C33 611 11 589 11 561Z " transform="matrix(0.017978146288448245,-0.5148267506733085,0.5148267506733085,0.017978146288448245,-241.7851428181541,606.8692380660411)"></path><path d="M421 646H471C499 646 521 668 521 696H471C443 696 421 674 421 646Z " transform="matrix(-0.38075348045697605,-0.03331161313802477,0.03331161313802477,-0.38075348045697605,627.9827968796212,942.1753551746408)"></path><path d="M104 385H154C182 385 204 407 204 435H154C126 435 104 413 104 385Z " transform="matrix(-0.0611602805817914,-0.498110512690238,0.498110512690238,-0.0611602805817914,-40.80662699340169,511.7847339928311)"></path><path d="M406 141H456C484 141 506 163 506 191H456C428 191 406 169 406 141Z " transform="matrix(-0.38278438088545397,-0.0402322596246109,0.0402322596246109,-0.38278438088545397,623.8711225860816,247.88811761580797)"></path><path d="M210 359H260C288 359 310 381 310 409H260C232 409 210 387 210 359Z " transform="matrix(-0.19335805153870975,-0.43428929428640894,0.43428929428640894,-0.19335805153870975,143.5060043940835,571.1647083053308)"></path><path d="M470 234H520C548 234 570 256 570 284H520C492 284 470 262 470 234Z " transform="matrix(-0.34584969046502767,0.07984569243899678,-0.07984569243899678,-0.34584969046502767,720.5218733835145,307.05530976216386)"></path><path d="M713 245H763C791 245 813 267 813 295H763C735 295 713 273 713 245Z " transform="matrix(-0.030176704173135102,0.24576953284051917,-0.24576953284051917,-0.030176704173135102,852.3825991510423,90.62555656943036)"></path><path d="M369 731H419C447 731 469 753 469 781H419C391 781 369 759 369 731Z " transform="matrix(-0.3782098476262221,-0.15280669731011226,0.15280669731011226,-0.3782098476262221,461.94806298894224,1105.9526509783611)"></path><path d="M279 19H329C357 19 379 41 379 69H329C301 69 279 47 279 19Z " transform="matrix(-0.3836161240157887,-0.053913730274475095,0.053913730274475095,-0.3836161240157887,452.8375006691176,78.61672671699701)"></path><path d="M544 319H594C622 319 644 341 644 369H594C566 369 544 347 544 319Z " transform="matrix(-0.2542924935965135,0.19162313846039156,-0.19162313846039156,-0.2542924935965135,810.9681008267037,317.65247355172806)"></path><path d="M446 563H496C524 563 546 585 546 613H496C468 613 446 591 446 563Z " transform="matrix(-0.3731817837689983,0.006513912265715893,-0.006513912265715893,-0.3731817837689983,684.9283451616641,804.199988372376)"></path><path d="M489 725H539C567 725 589 747 589 775H539C511 775 489 753 489 725Z " transform="matrix(-0.3268885977278478,0.11255677066723546,-0.11255677066723546,-0.3268885977278478,799.6105321757367,934.4983489062461)"></path><path d="M633 415H683C711 415 733 437 733 465H683C655 465 633 443 633 415Z " transform="matrix(-0.12163733579305987,0.2493934968559814,-0.2493934968559814,-0.12163733579305987,875.8114389632917,323.18466939631105)"></path><path d="M457 358H507C535 358 557 380 557 408H507C479 408 457 386 457 358Z " transform="matrix(-0.36142150085173874,0.04437698028294952,-0.04437698028294952,-0.36142150085173874,707.2370843802014,498.9253058227605)"></path><path d="M12 734H62C90 734 112 756 112 784H62C34 784 12 762 12 734Z " transform="matrix(0.017978146288448245,-0.5148267506733085,0.5148267506733085,0.017978146288448245,-329.8681488309249,777.2738455088129)"></path><path d="M707 493H757C785 493 807 515 807 543H757C729 543 707 521 707 493Z " transform="matrix(-0.030176704173135102,0.24576953284051917,-0.24576953284051917,-0.030176704173135102,907.1523830704521,347.583996401411)"></path><path d="M387 266H437C465 266 487 288 487 316H437C409 316 387 294 387 266Z " transform="matrix(-0.3841001037309365,-0.11013893241432546,0.11013893241432546,-0.3841001037309365,572.8013159978506,450.90384365076284)"></path><path d="M413 457H463C491 457 513 479 513 507H463C435 507 413 485 413 457Z " transform="matrix(-0.38506035266990735,-0.06789652937682152,0.06789652937682152,-0.38506035266990735,608.556816126539,699.0351830883636)"></path><path d="M208 237H258C286 237 308 259 308 287H258C230 287 208 265 208 237Z " transform="matrix(-0.19335805153870975,-0.43428929428640894,0.43428929428640894,-0.19335805153870975,194.10258219394797,424.70644742903545)"></path><path d="M711 365H761C789 365 811 387 811 415H761C733 415 711 393 711 365Z " transform="matrix(-0.030176704173135102,0.24576953284051917,-0.24576953284051917,-0.030176704173135102,879.8145896835583,214.7383001358876)"></path><path d="M309 638H359C387 638 409 660 409 688H359C331 688 309 666 309 638Z " transform="matrix(-0.3257976290063894,-0.29334950278000027,0.29334950278000027,-0.3257976290063894,281.4706284701536,984.3162995292562)"></path><path d="M196 644H246C274 644 296 666 296 694H246C218 694 196 672 196 644Z " transform="matrix(-0.17223195609025324,-0.4486795854015411,0.4486795854015411,-0.17223195609025324,-11.797581435428754,894.5983566331586)"></path><path d="M-9 648H41C69 648 91 670 91 698H41C13 698 -9 676 -9 648Z " transform="matrix(0.018010050754987624,-0.5157403750579864,0.5157403750579864,0.018010050754987624,-306.83168449497936,682.0245912192707)"></path><path d="M694 23H744C772 23 794 45 794 73H744C716 73 694 51 694 23Z " transform="matrix(0.11984161725831699,0.11984161725831696,-0.11984161725831696,0.11984161725831699,660.5902343882113,-46.914560868587046)"></path><path d="M253 730H303C331 730 353 752 353 780H303C275 780 253 758 253 730Z " transform="matrix(-0.26929106179544954,-0.3706473487997422,0.3706473487997422,-0.26929106179544954,104.75644338021584,1070.6208983418862)"></path></g><g fill="none" stroke-width="3" stroke="#001678"><path d="M550 622H600C628 622 650 644 650 672H600C572 672 550 650 550 622Z " transform="matrix(-0.22643682777753046,0.21115575795970273,-0.21115575795970273,-0.22643682777753046,872.4798720664461,666.8111727962406)"></path><path d="M379 29H429C457 29 479 51 479 79H429C401 79 379 57 379 29Z " transform="matrix(-0.3612261778911129,0.04435299763899483,-0.04435299763899483,-0.3612261778911129,586.3610921877931,54.478777618991316)"></path><path d="M633 300H683C711 300 733 322 733 350H683C655 350 633 328 633 300Z " transform="matrix(-0.12163733579305987,0.2493934968559814,-0.2493934968559814,-0.12163733579305987,847.1311868248538,194.19637578010915)"></path><path d="M303 107H353C381 107 403 129 403 157H353C325 157 303 135 303 107Z " transform="matrix(-0.3673310002874696,-0.20361489833854401,0.20361489833854401,-0.3673310002874696,455.79067652078896,252.36375115145202)"></path><path d="M204 135H254C282 135 304 157 304 185H254C226 185 204 163 204 135Z " transform="matrix(-0.24548345249325496,-0.3928556453331642,0.3928556453331642,-0.24548345249325496,253.4958936799805,299.0626863135445)"></path><path d="M-2 205H48C76 205 98 227 98 255H48C20 255 -2 233 -2 205Z " transform="matrix(0.018010050754987624,-0.5157403750579864,0.5157403750579864,0.018010050754987624,-71.4847686995763,250.61322632913618)"></path><path d="M540 422H590C618 422 640 444 640 472H590C562 472 540 450 540 422Z " transform="matrix(-0.2542924935965135,0.19162313846039156,-0.19162313846039156,-0.2542924935965135,825.688114113738,447.6110929460105)"></path><path d="M608 103H658C686 103 708 125 708 153H658C630 153 608 131 608 103Z " transform="matrix(-0.04846711689979054,0.24934170088931992,-0.24934170088931992,-0.04846711689979054,721.8071006338951,-29.86304822199935)"></path><path d="M513 507H563C591 507 613 529 613 557H563C535 557 513 535 513 507Z " transform="matrix(-0.3049925759747768,0.14222037385745867,-0.14222037385745867,-0.3049925759747768,810.3720591659674,614.185979936832)"></path><path d="M1 383H51C79 383 101 405 101 433H51C23 433 1 411 1 383Z " transform="matrix(0.017978146288448245,-0.5148267506733085,0.5148267506733085,0.017978146288448245,-159.9661997354207,426.9210805986518)"></path><path d="M506 122H556C584 122 606 144 606 172H556C528 172 506 150 506 122Z " transform="matrix(-0.26357706649055757,0.18455864885589043,-0.18455864885589043,-0.26357706649055757,729.678970350566,83.13122001023686)"></path><path d="M133 560H183C211 560 233 582 233 610H183C155 610 133 588 133 560Z " transform="matrix(-0.07795293485104042,-0.4921754604891208,0.4921754604891208,-0.07795293485104042,-90.65725730839529,720.6705761573678)"></path><path d="M186 461H236C264 461 286 483 286 511H236C208 511 186 489 186 461Z " transform="matrix(-0.17223195609025324,-0.4486795854015411,0.4486795854015411,-0.17223195609025324,58.58846313215079,675.5931128146269)"></path><path d="M288 304H338C366 304 388 326 388 354H338C310 354 288 332 288 304Z " transform="matrix(-0.3093153552252171,-0.32030542685661023,0.32030542685661023,-0.3093153552252171,337.1681046302986,539.0279861466306)"></path><path d="M84 479H134C162 479 184 501 184 529H134C106 529 84 507 84 479Z " transform="matrix(-0.04401483511637869,-0.5030918674776246,0.5030918674776246,-0.04401483511637869,-113.66031330312805,593.5977871406566)"></path><path d="M579 18H629C657 18 679 40 679 68H629C601 68 579 46 579 18Z " transform="matrix(0.00819650446672532,0.23471717794369465,-0.23471717794369465,0.00819650446672532,633.9372373420086,-104.98955461865313)"></path><path d="M559 212H609C637 212 659 234 659 262H609C581 262 559 240 559 212Z " transform="matrix(-0.22643682777753046,0.21115575795970273,-0.21115575795970273,-0.22643682777753046,796.9439427529655,162.07167158581575)"></path><path d="M599 718H649C677 718 699 740 699 768H649C621 768 599 746 599 718Z " transform="matrix(-0.17212085324225168,0.23690403053870743,-0.23690403053870743,-0.17212085324225168,936.726128444481,717.1350781393719)"></path><path d="M-8 473H42C70 473 92 495 92 523H42C14 523 -8 501 -8 473Z " transform="matrix(0.018010050754987624,-0.5157403750579864,0.5157403750579864,0.018010050754987624,-215.5951289105867,510.69209047645154)"></path><path d="M701 721H751C779 721 801 743 801 771H751C723 771 701 749 701 721Z " transform="matrix(-0.030176704173135102,0.24576953284051917,-0.24576953284051917,-0.030176704173135102,957.0067763330518,583.9389021499289)"></path><path d="M291 441H341C369 441 391 463 391 491H341C313 491 291 469 291 441Z " transform="matrix(-0.3093153552252171,-0.32030542685661023,0.32030542685661023,-0.3093153552252171,297.21420721661866,719.3651060930551)"></path><path d="M86 647H136C164 647 186 669 186 697H136C108 697 86 675 86 647Z " transform="matrix(-0.04401483511637869,-0.5030918674776246,0.5030918674776246,-0.04401483511637869,-196.09171736913623,769.9984631751635)"></path><path d="M101 203H151C179 203 201 225 201 253H151C123 253 101 231 101 203Z " transform="matrix(-0.0611602805817914,-0.498110512690238,0.498110512690238,-0.0611602805817914,46.66600547447625,317.1592313888744)"></path><path d="M10 294H60C88 294 110 316 110 344H60C32 344 10 322 10 294Z " transform="matrix(0.017978146288448245,-0.5148267506733085,0.5148267506733085,0.017978146288448245,-105.30842224209229,344.1545763743835)"></path><path d="M-4 22H46C74 22 96 44 96 72H46C18 72 -4 50 -4 22Z " transform="matrix(-0.38272556219949333,-0.1317829793770969,0.1317829793770969,-0.38272556219949333,57.41157583045314,71.05011847472264)"></path><path d="M104 110H154C182 110 204 132 204 160H154C126 160 104 138 104 110Z " transform="matrix(-0.20068258038554918,-0.43036518246252536,0.43036518246252536,-0.20068258038554918,126.80581774693364,228.36838645127807)"></path><path d="M242 548H292C320 548 342 570 342 598H292C264 598 242 576 242 548Z " transform="matrix(-0.24596728480937705,-0.39362993889492026,0.39362993889492026,-0.24596728480937705,138.27249217754877,828.8791963530898)"></path><path d="M2 114H52C80 114 102 136 102 164H52C24 164 2 142 2 114Z " transform="matrix(-0.1497817654262746,-0.4609808736214907,0.4609808736214907,-0.1497817654262746,-4.287689631220921,183.7906708225697)"></path><path d="M185 29H235C263 29 285 51 285 79H235C207 79 185 57 185 29Z " transform="matrix(-0.3795390759201111,-0.15334374040096552,0.15334374040096552,-0.3795390759201111,315.911120859574,110.53088909391289)"></path><path d="M611 530H661C689 530 711 552 711 580H661C633 580 611 558 611 530Z " transform="matrix(-0.1467595175600348,0.24424885391482645,-0.24424885391482645,-0.1467595175600348,893.5661550299117,475.003039808119)"></path><path d="M345 539H395C423 539 445 561 445 589H395C367 589 345 567 345 539Z " transform="matrix(-0.3593620036749977,-0.22455430233723309,0.22455430233723309,-0.3593620036749977,410.29936493342467,855.3791194959058)"></path><path d="M310 201H360C388 201 410 223 410 251H360C332 251 310 229 310 201Z " transform="matrix(-0.3257976290063894,-0.29334950278000027,0.29334950278000027,-0.3257976290063894,410.9901588140201,405.23608515624414)"></path></g></svg>